nu-alfabet-9-80-9-16-5-Regular.ufo
<glyph name="exclam" format="1">
  <advance width="800"/>
  <unicode hex="0021"/>
  <outline>
    <contour>
      <point x="40" y="80" type="line"/>
      <point x="40" y="16" type="line"/>
      <point x="120" y="0" type="line"/>
      <point x="760" y="0" type="line"/>
      <point x="760" y="16" type="line"/>
      <point x="120" y="16" type="line"/>
      <point x="120" y="80" type="line"/>
    </contour>
    <contour>
      <point x="40" y="-16" type="line"/>
      <point x="40" y="-32" type="line"/>
      <point x="120" y="-32" type="line"/>
      <point x="120" y="-16" type="line"/>
    </contour>
  </outline>
</glyph>
<glyph name="parenright" format="1">
  <advance width="800"/>
  <unicode hex="0029"/>
  <outline>
    <contour>
      <point x="680" y="112" type="line"/>
      <point x="680" y="80" type="line"/>
      <point x="40" y="80" type="line"/>
      <point x="40" y="64" type="line"/>
      <point x="680" y="64" type="line"/>
      <point x="680" y="16" type="line"/>
      <point x="40" y="16" type="line"/>
      <point x="40" y="0" type="line"/>
      <point x="680" y="0" type="line"/>
      <point x="680" y="-32" type="line"/>
      <point x="760" y="-32" type="line"/>
      <point x="760" y="112" type="line"/>
    </contour>
  </outline>
</glyph>
<glyph name="plus" format="1">
  <advance width="800"/>
  <unicode hex="002B"/>
  <outline>
    <contour>
      <point x="360" y="80" type="line"/>
      <point x="360" y="48" type="line"/>
      <point x="40" y="48" type="line"/>
      <point x="40" y="32" type="line"/>
      <point x="360" y="32" type="line"/>
      <point x="360" y="0" type="line"/>
      <point x="440" y="0" type="line"/>
      <point x="440" y="32" type="line"/>
      <point x="760" y="32" type="line"/>
      <point x="760" y="48" type="line"/>
      <point x="440" y="48" type="line"/>
      <point x="440" y="80" type="line"/>
    </contour>
  </outline>
</glyph>
<glyph name="slash" format="1">
  <advance width="800"/>
  <unicode hex="002F"/>
  <outline>
    <contour>
      <point x="440" y="112" type="line"/>
      <point x="360" y="96" type="line"/>
      <point x="360" y="-16" type="line"/>
      <point x="40" y="-16" type="line"/>
      <point x="40" y="-32" type="line"/>
      <point x="360" y="-32" type="line"/>
      <point x="440" y="-16" type="line"/>
      <point x="440" y="96" type="line"/>
      <point x="760" y="96" type="line"/>
      <point x="760" y="112" type="line"/>
    </contour>
  </outline>
</glyph>
<glyph name="one" format="1">
  <advance width="800"/>
  <unicode hex="0031"/>
  <outline>
    <contour>
      <point x="40" y="80" type="line"/>
      <point x="40" y="64" type="line"/>
      <point x="680" y="64" type="line"/>
      <point x="680" y="0" type="line"/>
      <point x="760" y="0" type="line"/>
      <point x="760" y="64" type="line"/>
      <point x="680" y="80" type="line"/>
    </contour>
  </outline>
</glyph>
<glyph name="three" format="1">
  <advance width="800"/>
  <unicode hex="0033"/>
  <outline>
    <contour>
      <point x="40" y="80" type="line"/>
      <point x="40" y="64" type="line"/>
      <point x="680" y="64" type="line"/>
      <point x="680" y="48" type="line"/>
      <point x="40" y="48" type="line"/>
      <point x="40" y="32" type="line"/>
      <point x="680" y="32" type="line"/>
      <point x="680" y="16" type="line"/>
      <point x="40" y="16" type="line"/>
      <point x="40" y="0" type="line"/>
      <point x="680" y="0" type="line"/>
      <point x="760" y="16" type="line"/>
      <point x="760" y="64" type="line"/>
      <point x="680" y="80" type="line"/>
    </contour>
  </outline>
</glyph>
<glyph name="four" format="1">
  <advance width="800"/>
  <unicode hex="0034"/>
  <outline>
    <contour>
      <point x="40" y="80" type="line"/>
      <point x="40" y="16" type="line"/>
      <point x="120" y="0" type="line"/>
      <point x="680" y="0" type="line"/>
      <point x="680" y="-32" type="line"/>
      <point x="760" y="-32" type="line"/>
      <point x="760" y="0" type="line"/>
      <point x="680" y="16" type="line"/>
      <point x="120" y="16" type="line"/>
      <point x="120" y="80" type="line"/>
    </contour>
  </outline>
</glyph>
<glyph name="five" format="1">
  <advance width="800"/>
  <unicode hex="0035"/>
  <outline>
    <contour>
      <point x="120" y="80" type="line"/>
      <point x="40" y="64" type="line"/>
      <point x="40" y="16" type="line"/>
      <point x="120" y="0" type="line"/>
      <point x="680" y="0" type="line"/>
      <point x="680" y="-32" type="line"/>
      <point x="760" y="-32" type="line"/>
      <point x="760" y="0" type="line"/>
      <point x="680" y="16" type="line"/>
      <point x="120" y="16" type="line"/>
      <point x="120" y="64" type="line"/>
      <point x="760" y="64" type="line"/>
      <point x="760" y="80" type="line"/>
    </contour>
  </outline>
</glyph>
<glyph name="six" format="1">
  <advance width="800"/>
  <unicode hex="0036"/>
  <outline>
    <contour>
      <point x="680" y="112" type="line"/>
      <point x="680" y="16" type="line"/>
      <point x="120" y="16" type="line"/>
      <point x="120" y="80" type="line"/>
      <point x="40" y="80" type="line"/>
      <point x="40" y="16" type="line"/>
      <point x="120" y="0" type="line"/>
      <point x="680" y="0" type="line"/>
      <point x="760" y="16" type="line"/>
      <point x="760" y="112" type="line"/>
    </contour>
  </outline>
</glyph>
<glyph name="seven" format="1">
  <advance width="800"/>
  <unicode hex="0037"/>
  <outline>
    <contour>
      <point x="40" y="80" type="line"/>
      <point x="40" y="64" type="line"/>
      <point x="680" y="64" type="line"/>
      <point x="680" y="-32" type="line"/>
      <point x="760" y="-32" type="line"/>
      <point x="760" y="64" type="line"/>
      <point x="680" y="80" type="line"/>
    </contour>
  </outline>
</glyph>
<glyph name="eight" format="1">
  <advance width="800"/>
  <unicode hex="0038"/>
  <outline>
    <contour>
      <point x="680" y="80" type="line"/>
      <point x="680" y="48" type="line"/>
      <point x="120" y="48" type="line"/>
      <point x="120" y="80" type="line"/>
      <point x="40" y="80" type="line"/>
      <point x="40" y="0" type="line"/>
      <point x="120" y="0" type="line"/>
      <point x="120" y="32" type="line"/>
      <point x="680" y="32" type="line"/>
      <point x="680" y="0" type="line"/>
      <point x="760" y="0" type="line"/>
      <point x="760" y="80" type="line"/>
    </contour>
  </outline>
</glyph>
<glyph name="colon" format="1">
  <advance width="800"/>
  <unicode hex="003A"/>
  <outline>
    <contour>
      <point x="680" y="80" type="line"/>
      <point x="680" y="64" type="line"/>
      <point x="760" y="64" type="line"/>
      <point x="760" y="80" type="line"/>
    </contour>
    <contour>
      <point x="40" y="16" type="line"/>
      <point x="40" y="0" type="line"/>
      <point x="120" y="0" type="line"/>
      <point x="120" y="16" type="line"/>
    </contour>
    <contour>
      <point x="40" y="80" type="line"/>
      <point x="40" y="64" type="line"/>
      <point x="120" y="64" type="line"/>
      <point x="120" y="80" type="line"/>
    </contour>
    <contour>
      <point x="680" y="16" type="line"/>
      <point x="680" y="0" type="line"/>
      <point x="760" y="0" type="line"/>
      <point x="760" y="16" type="line"/>
    </contour>
  </outline>
</glyph>
<glyph name="a" format="1">
  <advance width="800"/>
  <unicode hex="0061"/>
  <outline>
    <contour>
      <point x="680" y="80" type="line"/>
      <point x="680" y="16" type="line"/>
      <point x="40" y="16" type="line"/>
      <point x="40" y="0" type="line"/>
      <point x="680" y="0" type="line"/>
      <point x="760" y="16" type="line"/>
      <point x="760" y="80" type="line"/>
    </contour>
  </outline>
</glyph>
<glyph name="f" format="1">
  <advance width="800"/>
  <unicode hex="0066"/>
  <outline>
    <contour>
      <point x="120" y="80" type="line"/>
      <point x="40" y="64" type="line"/>
      <point x="40" y="-32" type="line"/>
      <point x="120" y="-32" type="line"/>
      <point x="120" y="0" type="line"/>
      <point x="760" y="0" type="line"/>
      <point x="760" y="16" type="line"/>
      <point x="120" y="16" type="line"/>
      <point x="120" y="64" type="line"/>
      <point x="760" y="64" type="line"/>
      <point x="760" y="80" type="line"/>
    </contour>
  </outline>
</glyph>
<glyph name="i" format="1">
  <advance width="800"/>
  <unicode hex="0069"/>
  <outline>
    <contour>
      <point x="40" y="80" type="line"/>
      <point x="40" y="16" type="line"/>
      <point x="120" y="0" type="line"/>
      <point x="760" y="0" type="line"/>
      <point x="760" y="16" type="line"/>
      <point x="120" y="16" type="line"/>
      <point x="120" y="80" type="line"/>
    </contour>
    <contour>
      <point x="40" y="112" type="line"/>
      <point x="40" y="96" type="line"/>
      <point x="120" y="96" type="line"/>
      <point x="120" y="112" type="line"/>
    </contour>
  </outline>
</glyph>
<glyph name="j" format="1">
  <advance width="800"/>
  <unicode hex="006A"/>
  <outline>
    <contour>
      <point x="40" y="80" type="line"/>
      <point x="40" y="64" type="line"/>
      <point x="680" y="64" type="line"/>
      <point x="680" y="-32" type="line"/>
      <point x="760" y="-32" type="line"/>
      <point x="760" y="64" type="line"/>
      <point x="680" y="80" type="line"/>
    </contour>
    <contour>
      <point x="680" y="112" type="line"/>
      <point x="680" y="96" type="line"/>
      <point x="760" y="96" type="line"/>
      <point x="760" y="112" type="line"/>
    </contour>
  </outline>
</glyph>
<glyph name="l" format="1">
  <advance width="800"/>
  <unicode hex="006C"/>
  <outline>
    <contour>
      <point x="40" y="112" type="line"/>
      <point x="40" y="16" type="line"/>
      <point x="120" y="0" type="line"/>
      <point x="760" y="0" type="line"/>
      <point x="760" y="16" type="line"/>
      <point x="120" y="16" type="line"/>
      <point x="120" y="112" type="line"/>
    </contour>
  </outline>
</glyph>
<glyph name="s" format="1">
  <advance width="800"/>
  <unicode hex="0073"/>
  <outline>
    <contour>
      <point x="40" y="112" type="line"/>
      <point x="40" y="80" type="line"/>
      <point x="120" y="64" type="line"/>
      <point x="680" y="64" type="line"/>
      <point x="680" y="16" type="line"/>
      <point x="40" y="16" type="line"/>
      <point x="40" y="0" type="line"/>
      <point x="680" y="0" type="line"/>
      <point x="760" y="16" type="line"/>
      <point x="760" y="64" type="line"/>
      <point x="680" y="80" type="line"/>
      <point x="120" y="80" type="line"/>
      <point x="120" y="112" type="line"/>
    </contour>
  </outline>
</glyph>
<glyph name="t" format="1">
  <advance width="800"/>
  <unicode hex="0074"/>
  <outline>
    <contour>
      <point x="40" y="112" type="line"/>
      <point x="40" y="0" type="line"/>
      <point x="120" y="0" type="line"/>
      <point x="120" y="64" type="line"/>
      <point x="760" y="64" type="line"/>
      <point x="760" y="80" type="line"/>
      <point x="120" y="80" type="line"/>
      <point x="120" y="112" type="line"/>
    </contour>
  </outline>
</glyph>
<glyph name="u" format="1">
  <advance width="800"/>
  <unicode hex="0075"/>
  <outline>
    <contour>
      <point x="680" y="80" type="line"/>
      <point x="680" y="16" type="line"/>
      <point x="120" y="16" type="line"/>
      <point x="120" y="80" type="line"/>
      <point x="40" y="80" type="line"/>
      <point x="40" y="16" type="line"/>
      <point x="120" y="0" type="line"/>
      <point x="680" y="0" type="line"/>
      <point x="760" y="16" type="line"/>
      <point x="760" y="80" type="line"/>
    </contour>
  </outline>
</glyph>
<glyph name="v" format="1">
  <advance width="800"/>
  <unicode hex="0076"/>
  <outline>
    <contour>
      <point x="680" y="112" type="line"/>
      <point x="680" y="16" type="line"/>
      <point x="120" y="16" type="line"/>
      <point x="120" y="80" type="line"/>
      <point x="40" y="80" type="line"/>
      <point x="40" y="16" type="line"/>
      <point x="120" y="0" type="line"/>
      <point x="680" y="0" type="line"/>
      <point x="760" y="16" type="line"/>
      <point x="760" y="112" type="line"/>
    </contour>
  </outline>
</glyph>
<glyph name="x" format="1">
  <advance width="800"/>
  <unicode hex="0078"/>
  <outline>
    <contour>
      <point x="40" y="80" type="line"/>
      <point x="40" y="64" type="line"/>
      <point x="360" y="64" type="line"/>
      <point x="360" y="16" type="line"/>
      <point x="40" y="16" type="line"/>
      <point x="40" y="0" type="line"/>
      <point x="760" y="0" type="line"/>
      <point x="760" y="16" type="line"/>
      <point x="440" y="16" type="line"/>
      <point x="440" y="64" type="line"/>
      <point x="760" y="64" type="line"/>
      <point x="760" y="80" type="line"/>
    </contour>
  </outline>
</glyph>
